<svg width="200" height="47" viewBox="0 0 200 47" fill="none" xmlns="http://www.w3.org/2000/svg">
<!-- Colorful icon/symbol on the left -->
<path fill-rule="evenodd" clip-rule="evenodd" d="M7.3408 40.6575L4.67548 42.2805C2.62065 43.5164 0 42.0423 0 39.645V7.36334C0 4.95115 2.62065 3.47703 4.67548 4.7278L13.5797 10.1329C13.1777 10.0584 12.7608 10.0138 12.329 10.0138C8.10019 10.0138 4.66059 13.3491 4.45213 17.5184H7.81728C8.30866 17.5184 8.80003 17.9204 8.82981 18.4267C8.85959 18.9776 8.41289 19.4392 7.86195 19.4392H4.45213V21.3153H7.86195C8.41289 21.3153 8.85959 21.762 8.82981 22.3279C8.80003 22.849 8.33844 23.2362 7.81728 23.2362H4.45213V25.0974H7.81728C8.30866 25.0974 8.80003 25.5143 8.82981 26.0206C8.85959 26.5715 8.41289 27.0331 7.86195 27.0331H4.45213C4.66059 31.2023 8.10019 34.5228 12.329 34.5228C12.463 34.5228 12.597 34.5079 12.7459 34.5079L11.1527 36.2203V38.3496L11.0186 38.424H9.67854C8.42778 38.424 7.40036 39.4217 7.3408 40.6575ZM31.284 26.1397L13.5053 36.9201V34.4335C17.1682 33.8826 20.0122 30.8003 20.1909 27.0331H16.7811C16.2302 27.0331 15.7984 26.5715 15.8133 26.0206C15.843 25.5143 16.3344 25.0974 16.8407 25.0974H20.2058V23.2362H16.7811C16.2302 23.2362 15.7984 22.7746 15.8133 22.2236C15.843 21.7025 16.3195 21.3153 16.8407 21.3153H20.2058V19.4392H16.8407C16.3344 19.4392 15.843 19.0372 15.8133 18.5309C15.7984 17.98 16.2302 17.5184 16.7811 17.5184H20.1909C20.1165 15.8953 19.5507 14.4063 18.6424 13.1854L31.284 20.8686C33.2644 22.0598 33.2644 24.9336 31.284 26.1397Z" fill="url(#paint0_linear_3688_1852)"/>

<!-- PromptCast text -->
<text x="45" y="32" font-family="Arial, sans-serif" font-size="26" font-weight="bold" fill="white">PromptCast</text>

<defs>
<linearGradient id="paint0_linear_3688_1852" x1="23.5406" y1="-11.1315" x2="65.0595" y2="30.3874" gradientUnits="userSpaceOnUse">
<stop stop-color="#1DB954"/>
<stop offset="1" stop-color="#1DB954"/>
</linearGradient>
</defs>
</svg>
